<svg width="40" height="40" viewBox="0 0 40 40" fill="none" xmlns="http://www.w3.org/2000/svg">
<g id="logoJoystick 1" clip-path="url(#clip0_5_143)">
<path id="Vector" d="M19.8933 13.6895V4.00665C19.8933 2.3372 21.224 1.00164 22.8873 1.00164C24.5506 1.00164 25.8813 2.3372 25.8813 4.00665V5.6761C25.8813 7.14521 27.0789 8.34722 28.5426 8.34722C30.0063 8.34722 31.2039 7.14521 31.2039 5.6761V0.333862" stroke="#839594" stroke-width="2" stroke-miterlimit="10"/>
<path id="Vector_2" d="M8.78233 27.0451C5.92141 27.0451 3.39316 25.5092 1.99597 23.172L1.13104 35.0585C1.13104 37.596 3.19356 39.7329 5.78835 39.7329C7.85087 39.7329 9.64726 38.3974 10.2461 36.394L13.9719 25.1086C12.5082 26.3106 10.7118 27.0451 8.78233 27.0451Z" fill="#F3F3F3"/>
<path id="Vector_3" d="M31.204 27.0451C34.0649 27.0451 36.5931 25.5092 37.9903 23.172L38.7887 35.0585C38.7887 37.596 36.7262 39.7329 34.1314 39.7329C32.0689 39.7329 30.2725 38.3974 29.6737 36.394L25.9479 25.1086C27.4116 26.3106 29.208 27.0451 31.204 27.0451Z" fill="#F3F3F3"/>
<g id="Group">
<path id="Vector_4" d="M19.9604 28.3807C19.8936 28.1803 19.8936 27.9132 19.8936 27.7129C19.8936 27.9132 19.8936 28.1803 19.8268 28.3807H19.9604Z" fill="#38454F"/>
<path id="Vector_5" d="M26.4136 26.3105L26.0144 25.1753C26.0809 25.2421 26.1474 25.2421 26.214 25.3089C24.4176 23.8398 23.22 21.6361 23.22 19.0985C23.22 16.6945 24.2845 14.5576 25.9478 13.0885H14.105C15.7683 14.5576 16.8328 16.6945 16.8328 19.0985C16.8328 21.5025 15.7683 23.6394 14.105 25.1085C14.1715 25.1753 14.238 25.3089 14.238 25.3756C14.8368 24.7746 15.6352 24.374 16.5667 24.374C18.3631 24.374 19.8268 25.8431 19.8933 27.5793C19.9599 25.7763 21.4236 24.374 23.22 24.374C24.5506 24.374 25.7482 25.1753 26.2805 26.3773C26.347 26.3105 26.347 26.3105 26.4136 26.3105Z" fill="#F3F3F3"/>
</g>
<path id="Vector_6" d="M8.64928 27.7129C13.4261 27.7129 17.2986 23.8262 17.2986 19.0317C17.2986 14.2373 13.4261 10.3506 8.64928 10.3506C3.87242 10.3506 0 14.2373 0 19.0317C0 23.8262 3.87242 27.7129 8.64928 27.7129Z" fill="#F4F4F4"/>
<path id="Vector_7" d="M31.2705 27.7129C36.0474 27.7129 39.9198 23.8262 39.9198 19.0317C39.9198 14.2373 36.0474 10.3506 31.2705 10.3506C26.4936 10.3506 22.6212 14.2373 22.6212 19.0317C22.6212 23.8262 26.4936 27.7129 31.2705 27.7129Z" fill="#F4F4F4"/>
<path id="Vector_8" d="M16.5667 31.0517C18.404 31.0517 19.8933 29.5568 19.8933 27.7128C19.8933 25.8688 18.404 24.3739 16.5667 24.3739C14.7294 24.3739 13.2401 25.8688 13.2401 27.7128C13.2401 29.5568 14.7294 31.0517 16.5667 31.0517Z" fill="#283238"/>
<path id="Vector_9" d="M23.22 31.0517C25.0572 31.0517 26.5466 29.5568 26.5466 27.7128C26.5466 25.8688 25.0572 24.3739 23.22 24.3739C21.3827 24.3739 19.8933 25.8688 19.8933 27.7128C19.8933 29.5568 21.3827 31.0517 23.22 31.0517Z" fill="#283238"/>
<path id="Vector_10" d="M19.228 16.3606H20.5587" stroke="#AFB6BB" stroke-width="2" stroke-miterlimit="10" stroke-linecap="round"/>
<path id="Vector_11" d="M35.5286 20.3672C36.4472 20.3672 37.1919 19.6198 37.1919 18.6978C37.1919 17.7758 36.4472 17.0283 35.5286 17.0283C34.6099 17.0283 33.8652 17.7758 33.8652 18.6978C33.8652 19.6198 34.6099 20.3672 35.5286 20.3672Z" stroke="#DD352E" stroke-width="2" stroke-miterlimit="10"/>
<path id="Vector_12" d="M26.8793 20.3672C27.798 20.3672 28.5427 19.6198 28.5427 18.6978C28.5427 17.7758 27.798 17.0283 26.8793 17.0283C25.9607 17.0283 25.216 17.7758 25.216 18.6978C25.216 19.6198 25.9607 20.3672 26.8793 20.3672Z" stroke="#BF4D90" stroke-width="2" stroke-miterlimit="10"/>
<path id="Vector_13" d="M12.109 17.6961H9.91339V15.4925C9.91339 15.2254 9.7138 15.025 9.44766 15.025H7.71781C7.45168 15.025 7.25208 15.2254 7.25208 15.4925V17.6961H5.05649C4.79036 17.6961 4.59076 17.8965 4.59076 18.1636V19.8998C4.59076 20.1669 4.79036 20.3673 5.05649 20.3673H7.25208V22.5709C7.25208 22.838 7.45168 23.0384 7.71781 23.0384H9.44766C9.7138 23.0384 9.91339 22.838 9.91339 22.5709V20.3673H12.109C12.3751 20.3673 12.5747 20.1669 12.5747 19.8998V18.1636C12.5747 17.8965 12.3751 17.6961 12.109 17.6961Z" fill="#283238" stroke="#38454F" stroke-width="2" stroke-miterlimit="10" stroke-linecap="round"/>
<path id="Vector_14" d="M31.2039 24.0401C32.1225 24.0401 32.8672 23.2926 32.8672 22.3706C32.8672 21.4486 32.1225 20.7012 31.2039 20.7012C30.2853 20.7012 29.5406 21.4486 29.5406 22.3706C29.5406 23.2926 30.2853 24.0401 31.2039 24.0401Z" stroke="#5D7BDB" stroke-width="2" stroke-miterlimit="10"/>
<path id="Vector_15" d="M31.2039 16.6945C32.1225 16.6945 32.8672 15.9471 32.8672 15.025C32.8672 14.103 32.1225 13.3556 31.2039 13.3556C30.2853 13.3556 29.5406 14.103 29.5406 15.025C29.5406 15.9471 30.2853 16.6945 31.2039 16.6945Z" stroke="#20BEE2" stroke-width="2" stroke-miterlimit="10"/>
</g>
<defs>
<clipPath id="clip0_5_143">
<rect width="39.8532" height="40" fill="white"/>
</clipPath>
</defs>
</svg>
